{"title":"Undercover Blues (1993) 720p AC3 (5.1) HDTV","uid":8817478,"size":2022177864,"categoryP":"video","categoryS":"hd___movies","magnet":"?xt=urn:btih:44c7dfeccf63a8eb500d37c2412fcca0675a3cc2&amp;dn=Undercover+Blues+%281993%29+720p+AC3+%285.1%29+HDTV&amp;tr=udp%3A%2F%2Ftracker.openbittorrent.com%3A80&amp;tr=udp%3A%2F%2Fopen.demonii.com%3A1337&amp;tr=udp%3A%2F%2Ftracker.coppersurfer.tk%3A6969&amp;tr=udp%3A%2F%2Fexodus.desync.com%3A6969","seeders":2,"leechers":0,"uploader":"nabsltd","files":2,"time":1376617442,"description":"This is my own rip.\n\nThere is a small logo for 20 seconds every 30 minutes.\n\nGeneral\nUnique ID                        : 233824915160497961425918788240922993693 (0xAFE90A63C9AC6E5D91CFFE7C70A9641D)\nFormat                           : Matroska\nFormat version                   : Version 4 / Version 2\nFile size                        : 1.86 GiB\nDuration                         : 1h 29mn\nOverall bit rate mode            : Variable\nOverall bit rate                 : 2 966 Kbps\nEncoded date                     : UTC 2013-08-15 21:42:35\nWriting application              : mkvmerge v6.3.0 ('You can't stop me!') built on Jun 28 2013 20:09:41\nWriting library                  : libebml v1.3.0 + libmatroska v1.4.0\n\nVideo\nID                               : 1\nFormat                           : AVC\nFormat/Info                      : Advanced Video Codec\nFormat profile                   : &lt;a class=&quot;__cf_email__&quot; href=&quot;/cdn-cgi/l/email-protection&quot; data-cfemail=&quot;6a22030d022a265e445b&quot;&gt;[email&amp;#160;protected]&lt;/a&gt;&lt;script cf-hash='f9e31' type=&quot;text/javascript&quot;&gt;\n/* &lt;![CDATA[ */!function(){try{var t=&quot;currentScript&quot;in document?document.currentScript:function(){for(var t=document.getElementsByTagName(&quot;script&quot;),e=t.length;e--;)if(t[e].getAttribute(&quot;cf-hash&quot;))return t[e]}();if(t&amp;&amp;t.previousSibling){var e,r,n,i,c=t.previousSibling,a=c.getAttribute(&quot;data-cfemail&quot;);if(a){for(e=&quot;&quot;,r=parseInt(a.substr(0,2),16),n=2;a.length-n;n+=2)i=parseInt(a.substr(n,2),16)^r,e+=String.fromCharCode(i);e=document.createTextNode(e),c.parentNode.replaceChild(e,c)}}}catch(u){}}();/* ]]&gt; */&lt;/script&gt;\nFormat settings, CABAC           : Yes\nFormat settings, ReFrames        : 7 frames\nCodec ID                         : V_MPEG4/ISO/AVC\nDuration                         : 1h 29mn\nBit rate mode                    : Variable\nBit rate                         : 2 523 Kbps\nMaximum bit rate                 : 12.2 Mbps\nWidth                            : 1 280 pixels\nHeight                           : 692 pixels\nDisplay aspect ratio             : 1.850\nFrame rate                       : 23.976 fps\nColor space                      : YUV\nChroma subsampling               : 4:2:0\nBit depth                        : 8 bits\nScan type                        : Progressive\nBits/(Pixel*Frame)               : 0.119\nStream size                      : 1.58 GiB (85%)\nWriting library                  : x264 core 135 r2345 f0c1c53\nLanguage                         : English\nDefault                          : Yes\nForced                           : No\n\nAudio\nID                               : 2\nFormat                           : AC-3\nFormat/Info                      : Audio Coding 3\nMode extension                   : CM (complete main)\nCodec ID                         : A_AC3\nDuration                         : 1h 29mn\nBit rate mode                    : Constant\nBit rate                         : 384 Kbps\nChannel(s)                       : 6 channels\nChannel positions                : Front: L C R, Side: L R, LFE\nSampling rate                    : 48.0 KHz\nBit depth                        : 16 bits\nCompression mode                 : Lossy\nStream size                      : 247 MiB (13%)\nLanguage                         : English\nDefault                          : Yes\nForced                           : No\n\nMenu\n00:00:00.000                     : Main Title/Introductions\n00:05:52.644                     : &quot;My Name Is Muerte!&quot;\n00:09:33.031                     : Gee, Sergeant Halsey\n00:15:54.537                     : &quot;Incredibly Not Interested&quot;\n00:19:22.203                     : Big Dead Colonel Man\n00:21:48.933                     : Coffee, Pastry, Robbery\n00:27:58.010                     : Foster's Fears\n00:31:13.914                     : Oysters With Guns\n00:38:56.709                     : Fun Date With Death\n00:45:07.872                     : Loud and Obnoxious\n00:47:52.828                     : Dr. Natasha LotteLenya\n00:51:36.760                     : Marty and the Alligators\n00:57:50.926                     : Dirty Little Trap\n01:00:04.309                     : An Evil Alliance\n01:03:13.790                     : &quot;Follow That Cab&quot;\n01:07:58.533                     : A Bang-Up Jane\n01:10:21.634                     : Trapped in Novacek's Lair\n01:15:18.514                     : Mud-and-Guts Showdown\n01:22:09.113                     : Shipping Out\n01:25:32.461                     : End Credits\n","torrent":{"xt":"urn:btih:44c7dfeccf63a8eb500d37c2412fcca0675a3cc2","amp;dn":"Undercover+Blues+%281993%29+720p+AC3+%285.1%29+HDTV","amp;tr":["udp%3A%2F%2Ftracker.openbittorrent.com%3A80","udp%3A%2F%2Fopen.demonii.com%3A1337","udp%3A%2F%2Ftracker.coppersurfer.tk%3A6969","udp%3A%2F%2Fexodus.desync.com%3A6969"],"infoHash":"44c7dfeccf63a8eb500d37c2412fcca0675a3cc2","infoHashBuffer":{"type":"Buffer","data":[68,199,223,236,207,99,168,235,80,13,55,194,65,47,204,160,103,90,60,194]},"announce":[],"urlList":[]}}